<svg width="328" height="47" viewBox="0 0 328 47" fill="none" xmlns="http://www.w3.org/2000/svg">
<g style="mix-blend-mode:exclusion">
<path d="M285.979 45.5158V1.6792H307.084C311.175 1.6792 314.703 2.34719 317.667 3.68316C320.673 5.01913 322.99 6.9396 324.618 9.44455C326.247 11.9078 327.061 14.8302 327.061 18.2119C327.061 21.5936 326.247 24.516 324.618 26.9792C322.99 29.4007 320.673 31.2585 317.667 32.5527C314.703 33.8469 311.175 34.4941 307.084 34.4941H294.183L300.759 28.4196V45.5158H285.979ZM312.219 45.5158L301.448 29.5468H317.104L328 45.5158H312.219ZM300.759 30.0478L294.183 23.347H306.144C308.19 23.347 309.693 22.8878 310.653 21.9693C311.655 21.0508 312.156 19.7983 312.156 18.2119C312.156 16.6254 311.655 15.3729 310.653 14.4544C309.693 13.536 308.19 13.0767 306.144 13.0767H294.183L300.759 6.37599V30.0478Z" fill="white"/>
</g>
<g style="mix-blend-mode:exclusion">
<path d="M257.996 17.9614H277.535V28.6074H257.996V17.9614ZM258.998 34.3688H280.917V45.5158H244.47V1.6792H280.103V12.8262H258.998V34.3688Z" fill="white"/>
</g>
<g style="mix-blend-mode:exclusion">
<path d="M219.698 46.5178C216.15 46.5178 212.872 45.9751 209.866 44.8896C206.902 43.7624 204.314 42.1759 202.101 40.1302C199.93 38.0845 198.239 35.6631 197.029 32.8659C195.818 30.0687 195.213 26.9792 195.213 23.5975C195.213 20.2159 195.818 17.1264 197.029 14.3292C198.239 11.532 199.951 9.11058 202.164 7.06487C204.376 5.01916 206.986 3.45357 209.992 2.36809C213.039 1.24086 216.379 0.677246 220.012 0.677246C224.353 0.677246 228.215 1.40786 231.597 2.86908C235.02 4.3303 237.838 6.41776 240.051 9.13145L230.595 17.4604C229.217 15.8739 227.714 14.6841 226.086 13.8909C224.5 13.0559 222.725 12.6384 220.763 12.6384C219.135 12.6384 217.653 12.8889 216.317 13.3899C215.022 13.8909 213.916 14.6215 212.998 15.5817C212.079 16.5419 211.369 17.69 210.868 19.026C210.367 20.362 210.117 21.8858 210.117 23.5975C210.117 25.2258 210.367 26.7287 210.868 28.1065C211.369 29.4424 212.079 30.5905 212.998 31.5508C213.916 32.511 215.002 33.2625 216.254 33.8052C217.548 34.3062 218.989 34.5567 220.575 34.5567C222.245 34.5567 223.873 34.2853 225.46 33.7426C227.046 33.1581 228.737 32.177 230.532 30.7993L238.799 40.9443C236.127 42.7395 233.079 44.1173 229.656 45.0775C226.232 46.0377 222.913 46.5178 219.698 46.5178ZM225.961 39.0656V22.4077H238.799V40.9443L225.961 39.0656Z" fill="white"/>
</g>
<g style="mix-blend-mode:exclusion">
<path d="M147.261 45.5158V1.6792H159.41L181.704 28.3569H176.068V1.6792H190.471V45.5158H178.322L156.028 18.8381H161.664V45.5158H147.261Z" fill="white"/>
</g>
<g style="mix-blend-mode:exclusion">
<path d="M92.6735 45.5158L111.836 1.6792H126.365L145.528 45.5158H130.248L116.095 8.69306H121.856L107.703 45.5158H92.6735ZM104.071 37.8757L107.828 27.2297H127.993L131.751 37.8757H104.071Z" fill="white"/>
</g>
<g style="mix-blend-mode:exclusion">
<path d="M76.1592 1.6792H90.9384V45.5158H76.1592V1.6792ZM62.5072 45.5158H47.728V1.6792H62.5072V45.5158ZM77.1612 29.3589H61.5053V17.2099H77.1612V29.3589Z" fill="white"/>
</g>
<g style="mix-blend-mode:exclusion">
<path d="M24.4233 46.5178C20.9163 46.5178 17.6599 45.9751 14.654 44.8896C11.6898 43.7624 9.10132 42.1759 6.88861 40.1302C4.71766 38.0845 3.02682 35.6631 1.81609 32.8659C0.605363 30.0687 0 26.9792 0 23.5975C0 20.2159 0.605363 17.1264 1.81609 14.3292C3.02682 11.532 4.71766 9.11058 6.88861 7.06487C9.10132 5.01916 11.6898 3.45357 14.654 2.36809C17.6599 1.24086 20.9163 0.677246 24.4233 0.677246C28.7234 0.677246 32.5226 1.42873 35.8208 2.9317C39.1607 4.43467 41.9162 6.60563 44.0871 9.44457L34.7562 17.7735C33.462 16.1453 32.0216 14.8928 30.4351 14.0161C28.8904 13.0976 27.137 12.6384 25.1748 12.6384C23.63 12.6384 22.2314 12.8889 20.979 13.3899C19.7265 13.8909 18.641 14.6215 17.7225 15.5817C16.8458 16.5419 16.1569 17.7109 15.6559 19.0886C15.155 20.4246 14.9045 21.9276 14.9045 23.5975C14.9045 25.2675 15.155 26.7914 15.6559 28.1691C16.1569 29.5051 16.8458 30.6532 17.7225 31.6134C18.641 32.5736 19.7265 33.3042 20.979 33.8052C22.2314 34.3062 23.63 34.5567 25.1748 34.5567C27.137 34.5567 28.8904 34.1183 30.4351 33.2416C32.0216 32.3231 33.462 31.0498 34.7562 29.4216L44.0871 37.7505C41.9162 40.5477 39.1607 42.7187 35.8208 44.2634C32.5226 45.7663 28.7234 46.5178 24.4233 46.5178Z" fill="white"/>
</g>
</svg>
