<?xml version="1.0" encoding="UTF-8"?>
<svg id="Layer_2" xmlns="http://www.w3.org/2000/svg" viewBox="0 0 54.61 48.02">
  <defs>
    <style>
      .cls-1 {
        fill: #fff;
      }

      .cls-2, .cls-3 {
        fill: #66f;
      }

      .cls-3 {
        stroke: #66f;
        stroke-miterlimit: 10;
      }
    </style>
  </defs>
  <g id="Layer_1-2" data-name="Layer_1">
    <g>
      <path class="cls-2" d="M54.61,9.34C43.97,10.77,7.61,15.57,3.31,25.47c-.85,3.12.5,4.65,3.25,6.2,2.54,1.45,5.4,2.74,8.9,2.25,0,0-2.53,6-2.53,6-3.44-5.16-13.44-6.03-11.93-13.81,1.31-9.42,26.95-13.06,35.05-14.77,6.12-1.15,12.28-2.03,18.43-2.98l.14.99h0Z"/>
      <path class="cls-1" d="M20.13,40.66h22.65l-1.51,7.36H9.87L19.81,0h30.11l-1.54,7.36h-21.32l-2.58,12.42h18.3l-1.51,7.36h-18.3l-2.84,13.53Z"/>
      <polygon class="cls-3" points="11.52 27.29 12.91 33.03 17.67 29.53 15.05 34.83 20.95 35.2 15.53 37.57 19.81 41.65 14.14 39.99 14.79 45.86 11.52 40.95 8.24 45.86 8.89 39.99 3.22 41.65 7.5 37.57 2.09 35.2 7.98 34.83 5.36 29.53 10.12 33.03 11.52 27.29"/>
    </g>
  </g>
</svg>